<svg xmlns="http://www.w3.org/2000/svg" xmlns:xlink="http://www.w3.org/1999/xlink" version="1.1" viewBox="0 0 2975 2908" style="background: #ffffff"><defs joint-selector="defs"></defs><g joint-selector="layers"  transform="matrix(1,0,0,1,0,0)"><g ></g><g ><g   id="j_31"  transform="translate(20,2863)"><g id="v-369"><text  id="v-370" font-size="22px" xml:space="preserve" y="0.8em" font-weight="normal" text-anchor="start" fill="#aaaaaa" pointer-events="none" display="block"><tspan dy="0" >Sunday, 10 December 2023 at 16:46 Central European Standard Time</tspan></text></g></g><g   id="j_30"  transform="translate(20,2819)"><g id="v-367"><text  id="v-368" font-size="36px" xml:space="preserve" y="0.8em" font-weight="normal" text-anchor="start" fill="#000000" pointer-events="none" display="block"><tspan dy="0" >[Container] Wishes</tspan></text></g></g><g   id="j_12"  transform="translate(2360,945)" style=""><g  id="v-119" style="opacity: 1;"><rect  x="0" y="160" width="400" height="240" rx="70" id="v-121" stroke="#c7c7c7" stroke-width="2" pointer-events="visiblePainted" fill="#dddddd" style="fill: rgb(221, 221, 221); stroke: rgb(199, 199, 199);"></rect><circle  cx="200" cy="88.88888888888889" r="88.88888888888889" id="v-120" stroke="#c7c7c7" stroke-width="2" pointer-events="visiblePainted" fill="#dddddd" style="fill: rgb(221, 221, 221); stroke: rgb(199, 199, 199);"></circle><line  x1="80" y1="266.6666666666667" x2="80" y2="400" id="v-127" stroke="#c7c7c7" stroke-width="2" style="stroke: rgb(199, 199, 199);"></line><line  x1="320" y1="266.6666666666667" x2="320" y2="400" id="v-128" stroke="#c7c7c7" stroke-width="2" style="stroke: rgb(199, 199, 199);"></line><text  id="v-122" font-size="34" xml:space="preserve" y="0.8em" font-weight="bold" text-anchor="middle" pointer-events="visible" fill="#000000" transform="matrix(1,0,0,1,200,243.1)" style="fill: rgb(0, 0, 0);"><tspan dy="0" >Stephan</tspan></text><text  id="v-123" font-size="17" xml:space="preserve" y="0.8em" text-anchor="middle" fill="#000000" transform="matrix(1,0,0,1,200,285.6)" style="fill: rgb(0, 0, 0);"><tspan dy="0" >[Person]</tspan></text><text  id="v-124" font-size="24" xml:space="preserve" display="none" y="0.8em" text-anchor="middle" fill="#000000" transform="matrix(1,0,0,1,200,316.9)" style="fill: rgb(0, 0, 0);"><tspan dy="0" style="fill-opacity: 0; stroke-opacity: 0;" >-</tspan></text><g  id="v-125" font-weight="normal" text-anchor="middle" color="#000000" transform="matrix(1,0,0,1,197.5,326.9)" display="none" style="fill: rgb(0, 0, 0);"><g ></g><g ></g><g ></g><g ></g></g><image  id="v-126"></image></g></g><g   id="j_13"  transform="translate(2317,2279)" style=""><g  id="v-132" style="opacity: 1;"><rect  id="v-133" rx="20" ry="20" stroke="#c7c7c7" stroke-width="2" pointer-events="visiblePainted" fill="#dddddd" width="450" height="300" style="fill: rgb(221, 221, 221); stroke: rgb(199, 199, 199);"></rect><text  id="v-134" font-size="34" xml:space="preserve" y="0.8em" font-weight="bold" text-anchor="middle" pointer-events="visible" fill="#000000" transform="matrix(1,0,0,1,225,98.1)" style="fill: rgb(0, 0, 0);"><tspan dy="0" >Identity Provider</tspan></text><text  id="v-135" font-size="17" xml:space="preserve" y="0.8em" text-anchor="middle" fill="#000000" transform="matrix(1,0,0,1,225,140.6)" style="fill: rgb(0, 0, 0);"><tspan dy="0" >[Software System]</tspan></text><text  id="v-136" font-size="24" xml:space="preserve" y="0.8em" text-anchor="middle" fill="#000000" transform="matrix(1,0,0,1,225,171.9)" style="fill: rgb(0, 0, 0);"><tspan dy="0" >Azure AD B2C</tspan></text><g  id="v-137" color="#000000" transform="matrix(1,0,0,1,222.5,211.9)" display="none" style="fill: rgb(0, 0, 0);"><g ></g><g ></g><g ></g><g ></g></g><image  id="v-138"></image></g></g><g   id="j_15"  transform="translate(2271,279)" style=""><g  id="v-147" style="opacity: 1;"><rect  x="0" y="160" width="400" height="240" rx="70" id="v-149" stroke="#c7c7c7" stroke-width="2" pointer-events="visiblePainted" fill="#dddddd" style="fill: rgb(221, 221, 221); stroke: rgb(199, 199, 199);"></rect><circle  cx="200" cy="88.88888888888889" r="88.88888888888889" id="v-148" stroke="#c7c7c7" stroke-width="2" pointer-events="visiblePainted" fill="#dddddd" style="fill: rgb(221, 221, 221); stroke: rgb(199, 199, 199);"></circle><line  x1="80" y1="266.6666666666667" x2="80" y2="400" id="v-155" stroke="#c7c7c7" stroke-width="2" style="stroke: rgb(199, 199, 199);"></line><line  x1="320" y1="266.6666666666667" x2="320" y2="400" id="v-156" stroke="#c7c7c7" stroke-width="2" style="stroke: rgb(199, 199, 199);"></line><text  id="v-150" font-size="34" xml:space="preserve" y="0.8em" font-weight="bold" text-anchor="middle" pointer-events="visible" fill="#000000" transform="matrix(1,0,0,1,200,243.1)" style="fill: rgb(0, 0, 0);"><tspan dy="0" >Mattis</tspan></text><text  id="v-151" font-size="17" xml:space="preserve" y="0.8em" text-anchor="middle" fill="#000000" transform="matrix(1,0,0,1,200,285.6)" style="fill: rgb(0, 0, 0);"><tspan dy="0" >[Person]</tspan></text><text  id="v-152" font-size="24" xml:space="preserve" display="none" y="0.8em" text-anchor="middle" fill="#000000" transform="matrix(1,0,0,1,200,316.9)" style="fill: rgb(0, 0, 0);"><tspan dy="0" style="fill-opacity: 0; stroke-opacity: 0;" >-</tspan></text><g  id="v-153" font-weight="normal" text-anchor="middle" color="#000000" transform="matrix(1,0,0,1,197.5,326.9)" display="none" style="fill: rgb(0, 0, 0);"><g ></g><g ></g><g ></g><g ></g></g><image  id="v-154"></image></g></g><g   id="j_11"  transform="translate(970,550)" style=""><g id="v-114"><rect  id="v-115" width="1067" height="2131" rx="0" ry="0" fill="#ffffff" stroke="#c7c7c7" stroke-width="1" stroke-dasharray="20,20" pointer-events="none"></rect><text  id="v-116" font-size="24px" xml:space="preserve" y="2092" font-weight="normal" fill="#c7c7c7" text-anchor="start" pointer-events="visible" transform="matrix(1,0,0,1,15,0)"><tspan dy="0" >Wishes</tspan></text><text  id="v-117" font-size="17px" xml:space="preserve" y="2116" font-weight="normal" fill="#c7c7c7" text-anchor="start" pointer-events="visible" transform="matrix(1,0,0,1,15,0)"><tspan dy="0" >[Software System]</tspan></text><image  id="v-118" pointer-events="visible"></image></g></g><g   id="j_10"  transform="translate(1567,1029)" style=""><g  id="v-104" style="opacity: 1;"><rect  id="v-105" rx="20" ry="20" stroke="#c7c7c7" stroke-width="2" pointer-events="visiblePainted" fill="#c7c7c7" width="300" height="450" style="fill: rgb(199, 199, 199); stroke: rgb(199, 199, 199);"></rect><rect  id="v-106" rx="5" ry="5" stroke="#c7c7c7" stroke-width="0" pointer-events="visiblePainted" fill="#dddddd" width="280" height="370" x="10" y="40" style="fill: rgb(221, 221, 221);"></rect><ellipse  id="v-112" fill="#dddddd" cx="150" cy="430" rx="10" ry="10" style="fill: rgb(221, 221, 221);"></ellipse><line  style="stroke-width: 2px; stroke: rgb(221, 221, 221);" id="v-113" stroke="#dddddd" x1="125" y1="20" x2="175" y2="20"></line><text  id="v-107" font-size="34" xml:space="preserve" y="0.8em" font-weight="bold" text-anchor="middle" pointer-events="visible" fill="#000000" transform="matrix(1,0,0,1,150,151.9)" style="fill: rgb(0, 0, 0);"><tspan dy="0" >Single Page</tspan><tspan dy="1.2em" x="0" >Application</tspan></text><text  id="v-108" font-size="17" xml:space="preserve" y="0.8em" text-anchor="middle" fill="#000000" transform="matrix(1,0,0,1,150,236.9)" style="fill: rgb(0, 0, 0);"><tspan dy="0" >[Container: TypeScript, React]</tspan></text><text  id="v-109" font-size="24" xml:space="preserve" y="0.8em" text-anchor="middle" fill="#000000" transform="matrix(1,0,0,1,150,268.1)" style="fill: rgb(0, 0, 0);"><tspan dy="0" >Primary frontend</tspan></text><g  id="v-110" font-weight="normal" text-anchor="middle" color="#000000" transform="matrix(1,0,0,1,135,308.1)" display="none" style="fill: rgb(0, 0, 0);"><g  transform="translate(5 0)"><svg xmlns="http://www.w3.org/2000/svg" width="20" height="20" fill="currentColor" viewBox="0 0 16 16"><path fill-rule="evenodd" d="M6.5 12a5.5 5.5 0 1 0 0-11 5.5 5.5 0 0 0 0 11zM13 6.5a6.5 6.5 0 1 1-13 0 6.5 6.5 0 0 1 13 0z"></path><path d="M10.344 11.742c.03.04.062.078.098.115l3.85 3.85a1 1 0 0 0 1.415-1.414l-3.85-3.85a1.007 1.007 0 0 0-.115-.1 6.538 6.538 0 0 1-1.398 1.4z"></path><path fill-rule="evenodd" d="M6.5 3a.5.5 0 0 1 .5.5V6h2.5a.5.5 0 0 1 0 1H7v2.5a.5.5 0 0 1-1 0V7H3.5a.5.5 0 0 1 0-1H6V3.5a.5.5 0 0 1 .5-.5z"></path></svg></g><g ></g><g ></g><g ></g></g><image  id="v-111"></image></g></g><g   id="j_14"  transform="translate(1050,2290)" style=""><g  id="v-139" style="opacity: 1;"><path  d="M 0,30 a 225,30 0,0,0 450 0 a 225,30 0,0,0 -450 0 l 0,240 a 225,30 0,0,0 450 0 l 0,-240" id="v-140" stroke="#c7c7c7" stroke-width="2" pointer-events="visiblePainted" fill="#dddddd" style="fill: rgb(221, 221, 221); stroke: rgb(199, 199, 199);"></path><rect  id="v-141" stroke-width="0" pointer-events="visiblePainted" fill="none" stroke="none" width="450" height="270" x="0" y="30"></rect><text  id="v-142" font-size="34" xml:space="preserve" y="0.8em" font-weight="bold" text-anchor="middle" pointer-events="visible" fill="#000000" transform="matrix(1,0,0,1,225,128.1)" style="fill: rgb(0, 0, 0);"><tspan dy="0" >SQL Database</tspan></text><text  id="v-143" font-size="17" xml:space="preserve" y="0.8em" text-anchor="middle" fill="#000000" transform="matrix(1,0,0,1,225,170.6)" style="fill: rgb(0, 0, 0);"><tspan dy="0" >[Container: SQL]</tspan></text><text  id="v-144" font-size="24" xml:space="preserve" y="0.8em" text-anchor="middle" fill="#000000" transform="matrix(1,0,0,1,225,201.9)" style="fill: rgb(0, 0, 0);"><tspan dy="0" >Stores relational data</tspan></text><g  id="v-145" font-weight="normal" text-anchor="middle" color="#000000" transform="matrix(1,0,0,1,222.5,241.9)" display="none" style="fill: rgb(0, 0, 0);"><g ></g><g ></g><g ></g><g ></g></g><image  id="v-146"></image></g></g><g   id="j_16"  transform="translate(1567,2279)" style=""><g  id="v-160" style="opacity: 1;"><path  d="M 0,30 a 225,30 0,0,0 450 0 a 225,30 0,0,0 -450 0 l 0,240 a 225,30 0,0,0 450 0 l 0,-240" id="v-161" stroke="#c7c7c7" stroke-width="2" pointer-events="visiblePainted" fill="#dddddd" style="fill: rgb(221, 221, 221); stroke: rgb(199, 199, 199);"></path><rect  id="v-162" stroke-width="0" pointer-events="visiblePainted" fill="none" stroke="none" width="450" height="270" x="0" y="30"></rect><text  id="v-163" font-size="34" xml:space="preserve" y="0.8em" font-weight="bold" text-anchor="middle" pointer-events="visible" fill="#000000" transform="matrix(1,0,0,1,225,128.1)" style="fill: rgb(0, 0, 0);"><tspan dy="0" >Document Database</tspan></text><text  id="v-164" font-size="17" xml:space="preserve" y="0.8em" text-anchor="middle" fill="#000000" transform="matrix(1,0,0,1,225,170.6)" style="fill: rgb(0, 0, 0);"><tspan dy="0" >[Container: CosmosDB]</tspan></text><text  id="v-165" font-size="24" xml:space="preserve" y="0.8em" text-anchor="middle" fill="#000000" transform="matrix(1,0,0,1,225,201.9)" style="fill: rgb(0, 0, 0);"><tspan dy="0" >Stores wishes</tspan></text><g  id="v-166" font-weight="normal" text-anchor="middle" color="#000000" transform="matrix(1,0,0,1,222.5,241.9)" display="none" style="fill: rgb(0, 0, 0);"><g ></g><g ></g><g ></g><g ></g></g><image  id="v-167"></image></g></g><g   id="j_17"  transform="translate(1567,1679)" style=""><g  id="v-168" style="opacity: 1;"><rect  id="v-169" rx="1" ry="1" stroke="#c7c7c7" stroke-width="2" pointer-events="visiblePainted" fill="#dddddd" width="450" height="300" style="fill: rgb(221, 221, 221); stroke: rgb(199, 199, 199);"></rect><text  id="v-170" font-size="34" xml:space="preserve" y="0.8em" font-weight="bold" text-anchor="middle" pointer-events="visible" fill="#000000" transform="matrix(1,0,0,1,225,113.1)" style="fill: rgb(0, 0, 0);"><tspan dy="0" >Backend</tspan></text><text  id="v-171" font-size="17" xml:space="preserve" y="0.8em" text-anchor="middle" fill="#000000" transform="matrix(1,0,0,1,225,155.6)" style="fill: rgb(0, 0, 0);"><tspan dy="0" >[Container]</tspan></text><text  id="v-172" font-size="24" xml:space="preserve" display="none" y="0.8em" text-anchor="middle" fill="#000000" transform="matrix(1,0,0,1,225,186.9)" style="fill: rgb(0, 0, 0);"><tspan dy="0" style="fill-opacity: 0; stroke-opacity: 0;" >-</tspan></text><g  id="v-173" color="#000000" transform="matrix(1,0,0,1,210,196.9)" display="none" style="fill: rgb(0, 0, 0);"><g  transform="translate(5 0)"><svg xmlns="http://www.w3.org/2000/svg" width="20" height="20" fill="currentColor" viewBox="0 0 16 16"><path fill-rule="evenodd" d="M6.5 12a5.5 5.5 0 1 0 0-11 5.5 5.5 0 0 0 0 11zM13 6.5a6.5 6.5 0 1 1-13 0 6.5 6.5 0 0 1 13 0z"></path><path d="M10.344 11.742c.03.04.062.078.098.115l3.85 3.85a1 1 0 0 0 1.415-1.414l-3.85-3.85a1.007 1.007 0 0 0-.115-.1 6.538 6.538 0 0 1-1.398 1.4z"></path><path fill-rule="evenodd" d="M6.5 3a.5.5 0 0 1 .5.5V6h2.5a.5.5 0 0 1 0 1H7v2.5a.5.5 0 0 1-1 0V7H3.5a.5.5 0 0 1 0-1H6V3.5a.5.5 0 0 1 .5-.5z"></path></svg></g><g ></g><g ></g><g ></g></g><image  id="v-174"></image></g></g><g   id="j_18"  transform="translate(990,1160)" style=""><g  id="v-178" style="opacity: 1;"><rect  x="0" y="160" width="400" height="240" rx="30" id="v-181" stroke="#c7c7c7" stroke-width="2" pointer-events="visiblePainted" fill="#dddddd" style="fill: rgb(221, 221, 221); stroke: rgb(199, 199, 199);"></rect><rect  rx="10" id="v-180" stroke="#c7c7c7" stroke-width="2" pointer-events="visiblePainted" fill="#dddddd" x="88.88888888888889" y="68.88888888888889" width="222.22222222222223" height="40" style="fill: rgb(221, 221, 221); stroke: rgb(199, 199, 199);"></rect><rect  rx="30" id="v-179" stroke="#c7c7c7" stroke-width="2" pointer-events="visiblePainted" fill="#dddddd" x="111.11111111111111" y="0" width="177.77777777777777" height="177.77777777777777" style="fill: rgb(221, 221, 221); stroke: rgb(199, 199, 199);"></rect><line  x1="80" y1="266.6666666666667" x2="80" y2="400" id="v-187" stroke="#c7c7c7" stroke-width="2" style="stroke: rgb(199, 199, 199);"></line><line  x1="320" y1="266.6666666666667" x2="320" y2="400" id="v-188" stroke="#c7c7c7" stroke-width="2" style="stroke: rgb(199, 199, 199);"></line><text  id="v-182" font-size="34" xml:space="preserve" y="0.8em" font-weight="bold" text-anchor="middle" pointer-events="visible" fill="#000000" transform="matrix(1,0,0,1,200,213.1)" style="fill: rgb(0, 0, 0);"><tspan dy="0" >Caretaker</tspan></text><text  id="v-183" font-size="17" xml:space="preserve" y="0.8em" text-anchor="middle" fill="#000000" transform="matrix(1,0,0,1,200,255.6)" style="fill: rgb(0, 0, 0);"><tspan dy="0" >[Container]</tspan></text><text  id="v-184" font-size="24" xml:space="preserve" y="0.8em" text-anchor="middle" fill="#000000" transform="matrix(1,0,0,1,200,286.9)" style="fill: rgb(0, 0, 0);"><tspan dy="0" >Deletes wishes after retention</tspan><tspan dy="1.2em" x="0" >period</tspan></text><g  id="v-185" font-weight="normal" text-anchor="middle" color="#000000" transform="matrix(1,0,0,1,197.5,356.9)" display="none" style="fill: rgb(0, 0, 0);"><g ></g><g ></g><g ></g><g ></g></g><image  id="v-186"></image></g></g><g   id="j_19"  transform="translate(1490,570)" style=""><g  id="v-192" style="opacity: 1;"><rect  id="v-193" rx="1" ry="1" stroke="#c7c7c7" stroke-width="2" pointer-events="visiblePainted" fill="#dddddd" width="450" height="300" style="fill: rgb(221, 221, 221); stroke: rgb(199, 199, 199);"></rect><text  id="v-194" font-size="34" xml:space="preserve" y="0.8em" font-weight="bold" text-anchor="middle" pointer-events="visible" fill="#000000" transform="matrix(1,0,0,1,225,83.1)" style="fill: rgb(0, 0, 0);"><tspan dy="0" >Web Application</tspan></text><text  id="v-195" font-size="17" xml:space="preserve" y="0.8em" text-anchor="middle" fill="#000000" transform="matrix(1,0,0,1,225,125.6)" style="fill: rgb(0, 0, 0);"><tspan dy="0" >[Container]</tspan></text><text  id="v-196" font-size="24" xml:space="preserve" y="0.8em" text-anchor="middle" fill="#000000" transform="matrix(1,0,0,1,225,156.9)" style="fill: rgb(0, 0, 0);"><tspan dy="0" >Serves Single Page App and static</tspan><tspan dy="1.2em" x="0" >files</tspan></text><g  id="v-197" color="#000000" transform="matrix(1,0,0,1,222.5,226.9)" display="none" style="fill: rgb(0, 0, 0);"><g ></g><g ></g><g ></g><g ></g></g><image  id="v-198"></image></g></g><g   id="j_20" ><path  stroke="#707070" d="M 1635 1479 L 1608 1551 C 1606 1557 1607 1562.6666666666665 1611 1568 L 1688 1679" id="v-212" stroke-width="2" fill="none" style="opacity: 1;"></path><path  fill="black" stroke="black" d="M 0 0 0 0" transform="matrix(-0.34374357538854705,0.939063551831876,-0.939063551831876,-0.34374357538854705,1634.6500244140625,1479)"></path><path  fill="#707070" stroke="#707070" d="M 20 0 L 0 10 L 20 20 z" id="v-214" transform="matrix(-0.5707733109874545,-0.8211076832330937,0.8211076832330937,-0.5707733109874545,1679.5088633087933,1684.7077503718926)" style="opacity: 1;"></path><path  d="M 1635 1479 L 1608 1551 C 1606 1557 1607 1562.6666666666665 1611 1568 L 1688 1679" id="v-213" fill="none" style="cursor: default;"></path><g ><g id="v-203"  label-idx="0" cursor="move" transform="matrix(1,0,0,1,1622.4500732421875,1584.5059814453125)" style="cursor: default; opacity: 1;"><rect joint-selector="rect" id="v-207" fill="#ffffff" rx="3" ry="3" pointer-events="none" width="53.84233093261719" height="32.88529586791992" transform="matrix(1,0,0,1,-26.9,-16.4)"></rect><text joint-selector="text" id="v-206" font-size="24px" xml:space="preserve" y="0.8em" fill="#707070" text-anchor="middle" pointer-events="none" font-weight="normal" transform="matrix(1,0,0,1,0,-9.8)"><tspan dy="0" >Uses</tspan></text></g><g id="v-204"  label-idx="1" cursor="move" transform="matrix(1,0,0,1,1622.4500732421875,1611.5059814453125)" style="cursor: default; opacity: 1;"><rect joint-selector="rect" id="v-209" fill="#ffffff" rx="3" ry="3" pointer-events="none" width="82.7270736694336" height="23.48949432373047" transform="matrix(1,0,0,1,-41.4,-11.8)"></rect><text joint-selector="text" id="v-208" font-size="17px" xml:space="preserve" y="0.8em" fill="#707070" text-anchor="middle" pointer-events="none" font-weight="normal" transform="matrix(1,0,0,1,0,-6.6)"><tspan dy="0" >[GraphQL]</tspan></text></g><g id="v-205"  label-idx="2" cursor="move" transform="matrix(1,0,0,1,1612.4500732421875,1620.7559814453125)" style="cursor: default; opacity: 1;"><rect joint-selector="rect" id="v-211" fill="#ffffff" rx="3" ry="3"  width="0" height="0" transform="matrix(1,0,0,1,0,0)" display="none"></rect><text joint-selector="text" id="v-210" fill="#000000" font-size="14" text-anchor="middle" pointer-events="none"></text></g></g><g  display="none"><g  transform="translate(1605, 1560)" id="v-200"><circle  idx="0" r="10"></circle><path  idx="0" d="M16,5.333c-7.732,0-14,4.701-14,10.5c0,1.982,0.741,3.833,2.016,5.414L2,25.667l5.613-1.441c2.339,1.317,5.237,2.107,8.387,2.107c7.732,0,14-4.701,14-10.5C30,10.034,23.732,5.333,16,5.333z" transform="translate(5, -33)"></path><path  idx="0" transform="scale(.8) translate(9.5, -37)" d="M24.778,21.419 19.276,15.917 24.777,10.415 21.949,7.585 16.447,13.087 10.945,7.585 8.117,10.415 13.618,15.917 8.116,21.419 10.946,24.248 16.447,18.746 21.948,24.248z"><title>Remove vertex.</title></path></g></g><g  id="v-216" display="none"><g  id="v-201"><path  end="source" d="M 26 0 L 0 13 L 26 26 z"></path></g><g  id="v-202"><path  end="target" d="M 26 0 L 0 13 L 26 26 z"></path></g></g><g  id="v-215" display="none"><g  id="v-199" transform="translate(1620.9550623364644, 1516.4531671027617) "><g  event="remove"><circle r="11"></circle><path transform="scale(.8) translate(-16, -16)" d="M24.778,21.419 19.276,15.917 24.777,10.415 21.949,7.585 16.447,13.087 10.945,7.585 8.117,10.415 13.618,15.917 8.116,21.419 10.946,24.248 16.447,18.746 21.948,24.248z"></path><title>Remove link.</title></g><g  event="link:options"><circle r="11" transform="translate(25)"></circle><path fill="white" transform="scale(.55) translate(29, -16)" d="M31.229,17.736c0.064-0.571,0.104-1.148,0.104-1.736s-0.04-1.166-0.104-1.737l-4.377-1.557c-0.218-0.716-0.504-1.401-0.851-2.05l1.993-4.192c-0.725-0.91-1.549-1.734-2.458-2.459l-4.193,1.994c-0.647-0.347-1.334-0.632-2.049-0.849l-1.558-4.378C17.165,0.708,16.588,0.667,16,0.667s-1.166,0.041-1.737,0.105L12.707,5.15c-0.716,0.217-1.401,0.502-2.05,0.849L6.464,4.005C5.554,4.73,4.73,5.554,4.005,6.464l1.994,4.192c-0.347,0.648-0.632,1.334-0.849,2.05l-4.378,1.557C0.708,14.834,0.667,15.412,0.667,16s0.041,1.165,0.105,1.736l4.378,1.558c0.217,0.715,0.502,1.401,0.849,2.049l-1.994,4.193c0.725,0.909,1.549,1.733,2.459,2.458l4.192-1.993c0.648,0.347,1.334,0.633,2.05,0.851l1.557,4.377c0.571,0.064,1.148,0.104,1.737,0.104c0.588,0,1.165-0.04,1.736-0.104l1.558-4.377c0.715-0.218,1.399-0.504,2.049-0.851l4.193,1.993c0.909-0.725,1.733-1.549,2.458-2.458l-1.993-4.193c0.347-0.647,0.633-1.334,0.851-2.049L31.229,17.736zM16,20.871c-2.69,0-4.872-2.182-4.872-4.871c0-2.69,2.182-4.872,4.872-4.872c2.689,0,4.871,2.182,4.871,4.872C20.871,18.689,18.689,20.871,16,20.871z"></path><title>Link options.</title></g></g></g></g><g   id="j_21" ><path  stroke="#707070" d="M 1867 1470 L 1897 1514 C 1900.9999999999998 1519.3333333333333 1901.9999999999998 1525 1900 1531 L 1846 1679" id="v-227" stroke-width="2" fill="none" style="opacity: 1;"></path><path  fill="black" stroke="black" d="M 0 0 0 0" transform="matrix(0.5701731713192512,0.8215245308009663,-0.8215245308009663,0.5701731713192512,1867,1470.1300048828125)"></path><path  fill="#707070" stroke="#707070" d="M 20 0 L 0 10 L 20 20 z" id="v-229" transform="matrix(0.34004487555947877,-0.9404092101876388,0.9404092101876388,0.34004487555947877,1836.8259523065915,1675.5995906119063)" style="opacity: 1;"></path><path  d="M 1867 1470 L 1897 1514 C 1900.9999999999998 1519.3333333333333 1901.9999999999998 1525 1900 1531 L 1846 1679" id="v-228" fill="none" style="cursor: default;"></path><g ><g id="v-221"  label-idx="0" cursor="move" transform="matrix(1,0,0,1,1885.21484375,1571.5220947265625)" style="cursor: default; opacity: 1;"><rect joint-selector="rect" id="v-224" fill="#ffffff" rx="3" ry="3" pointer-events="none" width="113.30011749267578" height="32.88529586791992" transform="matrix(1,0,0,1,-56.7,-16.4)"></rect><text joint-selector="text" id="v-223" font-size="24px" xml:space="preserve" y="0.8em" fill="#707070" text-anchor="middle" pointer-events="none" font-weight="normal" transform="matrix(1,0,0,1,0,-9.8)"><tspan dy="0" >Read wish</tspan></text></g><g id="v-222"  label-idx="1" cursor="move" transform="matrix(1,0,0,1,1875.21484375,1598.5220947265625)" style="cursor: default; opacity: 1;"><rect joint-selector="rect" id="v-226" fill="#ffffff" rx="3" ry="3"  width="0" height="0" transform="matrix(1,0,0,1,0,0)" display="none"></rect><text joint-selector="text" id="v-225" fill="#000000" font-size="14" text-anchor="middle" pointer-events="none"></text></g></g><g  display="none"><g  transform="translate(1903, 1522)" id="v-218"><circle  idx="0" r="10"></circle><path  idx="0" d="M16,5.333c-7.732,0-14,4.701-14,10.5c0,1.982,0.741,3.833,2.016,5.414L2,25.667l5.613-1.441c2.339,1.317,5.237,2.107,8.387,2.107c7.732,0,14-4.701,14-10.5C30,10.034,23.732,5.333,16,5.333z" transform="translate(5, -33)"></path><path  idx="0" transform="scale(.8) translate(9.5, -37)" d="M24.778,21.419 19.276,15.917 24.777,10.415 21.949,7.585 16.447,13.087 10.945,7.585 8.117,10.415 13.618,15.917 8.116,21.419 10.946,24.248 16.447,18.746 21.948,24.248z"><title>Remove vertex.</title></path></g></g><g  id="v-231" display="none"><g  id="v-219"><path  end="source" d="M 26 0 L 0 13 L 26 26 z"></path></g><g  id="v-220"><path  end="target" d="M 26 0 L 0 13 L 26 26 z"></path></g></g><g  id="v-230" display="none"><g  id="v-217" transform="translate(1889.5334729856604, 1503.0490937123018) "><g  event="remove"><circle r="11"></circle><path transform="scale(.8) translate(-16, -16)" d="M24.778,21.419 19.276,15.917 24.777,10.415 21.949,7.585 16.447,13.087 10.945,7.585 8.117,10.415 13.618,15.917 8.116,21.419 10.946,24.248 16.447,18.746 21.948,24.248z"></path><title>Remove link.</title></g><g  event="link:options"><circle r="11" transform="translate(25)"></circle><path fill="white" transform="scale(.55) translate(29, -16)" d="M31.229,17.736c0.064-0.571,0.104-1.148,0.104-1.736s-0.04-1.166-0.104-1.737l-4.377-1.557c-0.218-0.716-0.504-1.401-0.851-2.05l1.993-4.192c-0.725-0.91-1.549-1.734-2.458-2.459l-4.193,1.994c-0.647-0.347-1.334-0.632-2.049-0.849l-1.558-4.378C17.165,0.708,16.588,0.667,16,0.667s-1.166,0.041-1.737,0.105L12.707,5.15c-0.716,0.217-1.401,0.502-2.05,0.849L6.464,4.005C5.554,4.73,4.73,5.554,4.005,6.464l1.994,4.192c-0.347,0.648-0.632,1.334-0.849,2.05l-4.378,1.557C0.708,14.834,0.667,15.412,0.667,16s0.041,1.165,0.105,1.736l4.378,1.558c0.217,0.715,0.502,1.401,0.849,2.049l-1.994,4.193c0.725,0.909,1.549,1.733,2.459,2.458l4.192-1.993c0.648,0.347,1.334,0.633,2.05,0.851l1.557,4.377c0.571,0.064,1.148,0.104,1.737,0.104c0.588,0,1.165-0.04,1.736-0.104l1.558-4.377c0.715-0.218,1.399-0.504,2.049-0.851l4.193,1.993c0.909-0.725,1.733-1.549,2.458-2.458l-1.993-4.193c0.347-0.647,0.633-1.334,0.851-2.049L31.229,17.736zM16,20.871c-2.69,0-4.872-2.182-4.872-4.871c0-2.69,2.182-4.872,4.872-4.872c2.689,0,4.871,2.182,4.871,4.872C20.871,18.689,18.689,20.871,16,20.871z"></path><title>Link options.</title></g></g></g></g><g   id="j_22" ><path  stroke="#707070" d="M 1867 1396 L 2160 1672 C 2164.6666666666665 1676.6666666666665 2168.333333333333 1682 2171 1688 L 2467 2279" id="v-245" stroke-width="2" fill="none" style="opacity: 1;"></path><path  fill="black" stroke="black" d="M 0 0 0 0" transform="matrix(0.727017182199156,0.6866192662511001,-0.6866192662511001,0.727017182199156,1867,1395.6700439453125)"></path><path  fill="#707070" stroke="#707070" d="M 20 0 L 0 10 L 20 20 z" id="v-247" transform="matrix(-0.4472135493031436,-0.8944272140983216,0.8944272140983216,-0.4472135493031436,2458.055695383298,2283.4720716965144)" style="opacity: 1;"></path><path  d="M 1867 1396 L 2160 1672 C 2164.6666666666665 1676.6666666666665 2168.333333333333 1682 2171 1688 L 2467 2279" id="v-246" fill="none" style="cursor: default;"></path><g ><g id="v-239"  label-idx="0" cursor="move" transform="matrix(1,0,0,1,2224.499267578125,1794.81787109375)" style="cursor: default; opacity: 1;"><rect joint-selector="rect" id="v-242" fill="#ffffff" rx="3" ry="3" pointer-events="none" width="142.7720947265625" height="61.685298919677734" transform="matrix(1,0,0,1,-71.4,-30.8)"></rect><text joint-selector="text" id="v-241" font-size="24px" xml:space="preserve" y="0.8em" fill="#707070" text-anchor="middle" pointer-events="none" font-weight="normal" transform="matrix(1,0,0,1,0,-24.2)"><tspan dy="0" >Authenticate</tspan><tspan dy="1.2em" x="0" >users</tspan></text></g><g id="v-240"  label-idx="1" cursor="move" transform="matrix(1,0,0,1,2214.499267578125,1836.81787109375)" style="cursor: default; opacity: 1;"><rect joint-selector="rect" id="v-244" fill="#ffffff" rx="3" ry="3"  width="0" height="0" transform="matrix(1,0,0,1,0,0)" display="none"></rect><text joint-selector="text" id="v-243" fill="#000000" font-size="14" text-anchor="middle" pointer-events="none"></text></g></g><g  display="none"><g  transform="translate(2167, 1679)" id="v-236"><circle  idx="0" r="10"></circle><path  idx="0" d="M16,5.333c-7.732,0-14,4.701-14,10.5c0,1.982,0.741,3.833,2.016,5.414L2,25.667l5.613-1.441c2.339,1.317,5.237,2.107,8.387,2.107c7.732,0,14-4.701,14-10.5C30,10.034,23.732,5.333,16,5.333z" transform="translate(5, -33)"></path><path  idx="0" transform="scale(.8) translate(9.5, -37)" d="M24.778,21.419 19.276,15.917 24.777,10.415 21.949,7.585 16.447,13.087 10.945,7.585 8.117,10.415 13.618,15.917 8.116,21.419 10.946,24.248 16.447,18.746 21.948,24.248z"><title>Remove vertex.</title></path></g></g><g  id="v-249" display="none"><g  id="v-237"><path  end="source" d="M 26 0 L 0 13 L 26 26 z"></path></g><g  id="v-238"><path  end="target" d="M 26 0 L 0 13 L 26 26 z"></path></g></g><g  id="v-248" display="none"><g  id="v-235" transform="translate(1896.116327563453, 1423.426984325983) "><g  event="remove"><circle r="11"></circle><path transform="scale(.8) translate(-16, -16)" d="M24.778,21.419 19.276,15.917 24.777,10.415 21.949,7.585 16.447,13.087 10.945,7.585 8.117,10.415 13.618,15.917 8.116,21.419 10.946,24.248 16.447,18.746 21.948,24.248z"></path><title>Remove link.</title></g><g  event="link:options"><circle r="11" transform="translate(25)"></circle><path fill="white" transform="scale(.55) translate(29, -16)" d="M31.229,17.736c0.064-0.571,0.104-1.148,0.104-1.736s-0.04-1.166-0.104-1.737l-4.377-1.557c-0.218-0.716-0.504-1.401-0.851-2.05l1.993-4.192c-0.725-0.91-1.549-1.734-2.458-2.459l-4.193,1.994c-0.647-0.347-1.334-0.632-2.049-0.849l-1.558-4.378C17.165,0.708,16.588,0.667,16,0.667s-1.166,0.041-1.737,0.105L12.707,5.15c-0.716,0.217-1.401,0.502-2.05,0.849L6.464,4.005C5.554,4.73,4.73,5.554,4.005,6.464l1.994,4.192c-0.347,0.648-0.632,1.334-0.849,2.05l-4.378,1.557C0.708,14.834,0.667,15.412,0.667,16s0.041,1.165,0.105,1.736l4.378,1.558c0.217,0.715,0.502,1.401,0.849,2.049l-1.994,4.193c0.725,0.909,1.549,1.733,2.459,2.458l4.192-1.993c0.648,0.347,1.334,0.633,2.05,0.851l1.557,4.377c0.571,0.064,1.148,0.104,1.737,0.104c0.588,0,1.165-0.04,1.736-0.104l1.558-4.377c0.715-0.218,1.399-0.504,2.049-0.851l4.193,1.993c0.909-0.725,1.733-1.549,2.458-2.458l-1.993-4.193c0.347-0.647,0.633-1.334,0.851-2.049L31.229,17.736zM16,20.871c-2.69,0-4.872-2.182-4.872-4.871c0-2.69,2.182-4.872,4.872-4.872c2.689,0,4.871,2.182,4.871,4.872C20.871,18.689,18.689,20.871,16,20.871z"></path><title>Link options.</title></g></g></g></g><g   id="j_23" ><path  stroke="#707070" d="M 1665 1979 L 1402 2290" id="v-262" stroke-width="2" fill="none" style="opacity: 1;"></path><path  fill="black" stroke="black" d="M 0 0 0 0" transform="matrix(-0.6459509878533941,0.763378884493948,-0.763378884493948,-0.6459509878533941,1665.0799560546875,1979)"></path><path  fill="#707070" stroke="#707070" d="M 20 0 L 0 10 L 20 20 z" id="v-264" transform="matrix(0.6459511911534654,-0.7633787124667671,0.7633787124667671,0.6459511911534654,1394.2862175653604,2283.5404861506327)" style="opacity: 1;"></path><path  d="M 1665 1979 L 1402 2290" id="v-263" fill="none" style="cursor: default;"></path><g ><g id="v-256"  label-idx="0" cursor="move" transform="matrix(1,0,0,1,1533.5,2134.5)" style="cursor: default; opacity: 1;"><rect joint-selector="rect" id="v-259" fill="#ffffff" rx="3" ry="3" pointer-events="none" width="192.17344665527344" height="61.685298919677734" transform="matrix(1,0,0,1,-96.1,-30.8)"></rect><text joint-selector="text" id="v-258" font-size="24px" xml:space="preserve" y="0.8em" fill="#707070" text-anchor="middle" pointer-events="none" font-weight="normal" transform="matrix(1,0,0,1,0,-24.2)"><tspan dy="0" >Read/Write users</tspan><tspan dy="1.2em" x="0" >and wishlists</tspan></text></g><g id="v-257"  label-idx="1" cursor="move" transform="matrix(1,0,0,1,1523.5,2176.5)" style="cursor: default; opacity: 1;"><rect joint-selector="rect" id="v-261" fill="#ffffff" rx="3" ry="3"  width="0" height="0" transform="matrix(1,0,0,1,0,0)" display="none"></rect><text joint-selector="text" id="v-260" fill="#000000" font-size="14" text-anchor="middle" pointer-events="none"></text></g></g><g  display="none"></g><g  id="v-266" display="none"><g  id="v-254"><path  end="source" d="M 26 0 L 0 13 L 26 26 z"></path></g><g  id="v-255"><path  end="target" d="M 26 0 L 0 13 L 26 26 z"></path></g></g><g  id="v-265" display="none"><g  id="v-253" transform="translate(1639.1711163319244, 2009.542900459207) "><g  event="remove"><circle r="11"></circle><path transform="scale(.8) translate(-16, -16)" d="M24.778,21.419 19.276,15.917 24.777,10.415 21.949,7.585 16.447,13.087 10.945,7.585 8.117,10.415 13.618,15.917 8.116,21.419 10.946,24.248 16.447,18.746 21.948,24.248z"></path><title>Remove link.</title></g><g  event="link:options"><circle r="11" transform="translate(25)"></circle><path fill="white" transform="scale(.55) translate(29, -16)" d="M31.229,17.736c0.064-0.571,0.104-1.148,0.104-1.736s-0.04-1.166-0.104-1.737l-4.377-1.557c-0.218-0.716-0.504-1.401-0.851-2.05l1.993-4.192c-0.725-0.91-1.549-1.734-2.458-2.459l-4.193,1.994c-0.647-0.347-1.334-0.632-2.049-0.849l-1.558-4.378C17.165,0.708,16.588,0.667,16,0.667s-1.166,0.041-1.737,0.105L12.707,5.15c-0.716,0.217-1.401,0.502-2.05,0.849L6.464,4.005C5.554,4.73,4.73,5.554,4.005,6.464l1.994,4.192c-0.347,0.648-0.632,1.334-0.849,2.05l-4.378,1.557C0.708,14.834,0.667,15.412,0.667,16s0.041,1.165,0.105,1.736l4.378,1.558c0.217,0.715,0.502,1.401,0.849,2.049l-1.994,4.193c0.725,0.909,1.549,1.733,2.459,2.458l4.192-1.993c0.648,0.347,1.334,0.633,2.05,0.851l1.557,4.377c0.571,0.064,1.148,0.104,1.737,0.104c0.588,0,1.165-0.04,1.736-0.104l1.558-4.377c0.715-0.218,1.399-0.504,2.049-0.851l4.193,1.993c0.909-0.725,1.733-1.549,2.458-2.458l-1.993-4.193c0.347-0.647,0.633-1.334,0.851-2.049L31.229,17.736zM16,20.871c-2.69,0-4.872-2.182-4.872-4.871c0-2.69,2.182-4.872,4.872-4.872c2.689,0,4.871,2.182,4.871,4.872C20.871,18.689,18.689,20.871,16,20.871z"></path><title>Link options.</title></g></g></g></g><g   id="j_24" ><path  stroke="#707070" d="M 1980 1979 L 2355 2279" id="v-279" stroke-width="2" stroke-dasharray="30 30" fill="none" style="opacity: 1;"></path><path  fill="black" stroke="black" d="M 0 0 0 0" transform="matrix(0.7808688000832672,0.624695059254128,-0.624695059254128,0.7808688000832672,1979.5,1979)"></path><path  fill="#707070" stroke="#707070" d="M 20 0 L 0 10 L 20 20 z" id="v-281" transform="matrix(-0.7808688416748548,-0.6246950072646416,0.6246950072646416,-0.7808688416748548,2348.2531445941017,2286.808568176895)" style="opacity: 1;"></path><path  d="M 1980 1979 L 2355 2279" id="v-280" fill="none" style="cursor: default;"></path><g ><g id="v-273"  label-idx="0" cursor="move" transform="matrix(1,0,0,1,2167.5,2129)" style="cursor: default; opacity: 1;"><rect joint-selector="rect" id="v-276" fill="#ffffff" rx="3" ry="3" pointer-events="none" width="149.23170471191406" height="32.88529586791992" transform="matrix(1,0,0,1,-74.6,-16.4)"></rect><text joint-selector="text" id="v-275" font-size="24px" xml:space="preserve" y="0.8em" fill="#707070" text-anchor="middle" pointer-events="none" font-weight="normal" transform="matrix(1,0,0,1,0,-9.8)"><tspan dy="0" >Validate JWTs</tspan></text></g><g id="v-274"  label-idx="1" cursor="move" transform="matrix(1,0,0,1,2157.5,2156)" style="cursor: default; opacity: 1;"><rect joint-selector="rect" id="v-278" fill="#ffffff" rx="3" ry="3"  width="0" height="0" transform="matrix(1,0,0,1,0,0)" display="none"></rect><text joint-selector="text" id="v-277" fill="#000000" font-size="14" text-anchor="middle" pointer-events="none"></text></g></g><g  display="none"></g><g  id="v-283" display="none"><g  id="v-271"><path  end="source" d="M 26 0 L 0 13 L 26 26 z"></path></g><g  id="v-272"><path  end="target" d="M 26 0 L 0 13 L 26 26 z"></path></g></g><g  id="v-282" display="none"><g  id="v-270" transform="translate(2011.2347523777212, 2003.9878019021771) "><g  event="remove"><circle r="11"></circle><path transform="scale(.8) translate(-16, -16)" d="M24.778,21.419 19.276,15.917 24.777,10.415 21.949,7.585 16.447,13.087 10.945,7.585 8.117,10.415 13.618,15.917 8.116,21.419 10.946,24.248 16.447,18.746 21.948,24.248z"></path><title>Remove link.</title></g><g  event="link:options"><circle r="11" transform="translate(25)"></circle><path fill="white" transform="scale(.55) translate(29, -16)" d="M31.229,17.736c0.064-0.571,0.104-1.148,0.104-1.736s-0.04-1.166-0.104-1.737l-4.377-1.557c-0.218-0.716-0.504-1.401-0.851-2.05l1.993-4.192c-0.725-0.91-1.549-1.734-2.458-2.459l-4.193,1.994c-0.647-0.347-1.334-0.632-2.049-0.849l-1.558-4.378C17.165,0.708,16.588,0.667,16,0.667s-1.166,0.041-1.737,0.105L12.707,5.15c-0.716,0.217-1.401,0.502-2.05,0.849L6.464,4.005C5.554,4.73,4.73,5.554,4.005,6.464l1.994,4.192c-0.347,0.648-0.632,1.334-0.849,2.05l-4.378,1.557C0.708,14.834,0.667,15.412,0.667,16s0.041,1.165,0.105,1.736l4.378,1.558c0.217,0.715,0.502,1.401,0.849,2.049l-1.994,4.193c0.725,0.909,1.549,1.733,2.459,2.458l4.192-1.993c0.648,0.347,1.334,0.633,2.05,0.851l1.557,4.377c0.571,0.064,1.148,0.104,1.737,0.104c0.588,0,1.165-0.04,1.736-0.104l1.558-4.377c0.715-0.218,1.399-0.504,2.049-0.851l4.193,1.993c0.909-0.725,1.733-1.549,2.458-2.458l-1.993-4.193c0.347-0.647,0.633-1.334,0.851-2.049L31.229,17.736zM16,20.871c-2.69,0-4.872-2.182-4.872-4.871c0-2.69,2.182-4.872,4.872-4.872c2.689,0,4.871,2.182,4.871,4.872C20.871,18.689,18.689,20.871,16,20.871z"></path><title>Link options.</title></g></g></g></g><g   id="j_25" ><path  stroke="#707070" d="M 1792 1979 L 1792 2279" id="v-296" stroke-width="2" fill="none" style="opacity: 1;"></path><path  fill="black" stroke="black" d="M 0 0 0 0" transform="matrix(6.123233995736766e-17,1,-1,6.123233995736766e-17,1792,1979)"></path><path  fill="#707070" stroke="#707070" d="M 20 0 L 0 10 L 20 20 z" id="v-298" transform="matrix(-1.8369701987210297e-16,-1,1,-1.8369701987210297e-16,1782,2278.9999999999995)" style="opacity: 1;"></path><path  d="M 1792 1979 L 1792 2279" id="v-297" fill="none" style="cursor: default;"></path><g ><g id="v-290"  label-idx="0" cursor="move" transform="matrix(1,0,0,1,1792,2129)" style="cursor: default; opacity: 1;"><rect joint-selector="rect" id="v-293" fill="#ffffff" rx="3" ry="3" pointer-events="none" width="125.08157348632812" height="61.685298919677734" transform="matrix(1,0,0,1,-62.5,-30.8)"></rect><text joint-selector="text" id="v-292" font-size="24px" xml:space="preserve" y="0.8em" fill="#707070" text-anchor="middle" pointer-events="none" font-weight="normal" transform="matrix(1,0,0,1,0,-24.2)"><tspan dy="0" >Read/Write</tspan><tspan dy="1.2em" x="0" >wishes</tspan></text></g><g id="v-291"  label-idx="1" cursor="move" transform="matrix(1,0,0,1,1782,2171)" style="cursor: default; opacity: 1;"><rect joint-selector="rect" id="v-295" fill="#ffffff" rx="3" ry="3"  width="0" height="0" transform="matrix(1,0,0,1,0,0)" display="none"></rect><text joint-selector="text" id="v-294" fill="#000000" font-size="14" text-anchor="middle" pointer-events="none"></text></g></g><g  display="none"></g><g  id="v-300" display="none"><g  id="v-288"><path  end="source" d="M 26 0 L 0 13 L 26 26 z"></path></g><g  id="v-289"><path  end="target" d="M 26 0 L 0 13 L 26 26 z"></path></g></g><g  id="v-299" display="none"><g  id="v-287" transform="translate(1792, 2019) "><g  event="remove"><circle r="11"></circle><path transform="scale(.8) translate(-16, -16)" d="M24.778,21.419 19.276,15.917 24.777,10.415 21.949,7.585 16.447,13.087 10.945,7.585 8.117,10.415 13.618,15.917 8.116,21.419 10.946,24.248 16.447,18.746 21.948,24.248z"></path><title>Remove link.</title></g><g  event="link:options"><circle r="11" transform="translate(25)"></circle><path fill="white" transform="scale(.55) translate(29, -16)" d="M31.229,17.736c0.064-0.571,0.104-1.148,0.104-1.736s-0.04-1.166-0.104-1.737l-4.377-1.557c-0.218-0.716-0.504-1.401-0.851-2.05l1.993-4.192c-0.725-0.91-1.549-1.734-2.458-2.459l-4.193,1.994c-0.647-0.347-1.334-0.632-2.049-0.849l-1.558-4.378C17.165,0.708,16.588,0.667,16,0.667s-1.166,0.041-1.737,0.105L12.707,5.15c-0.716,0.217-1.401,0.502-2.05,0.849L6.464,4.005C5.554,4.73,4.73,5.554,4.005,6.464l1.994,4.192c-0.347,0.648-0.632,1.334-0.849,2.05l-4.378,1.557C0.708,14.834,0.667,15.412,0.667,16s0.041,1.165,0.105,1.736l4.378,1.558c0.217,0.715,0.502,1.401,0.849,2.049l-1.994,4.193c0.725,0.909,1.549,1.733,2.459,2.458l4.192-1.993c0.648,0.347,1.334,0.633,2.05,0.851l1.557,4.377c0.571,0.064,1.148,0.104,1.737,0.104c0.588,0,1.165-0.04,1.736-0.104l1.558-4.377c0.715-0.218,1.399-0.504,2.049-0.851l4.193,1.993c0.909-0.725,1.733-1.549,2.458-2.458l-1.993-4.193c0.347-0.647,0.633-1.334,0.851-2.049L31.229,17.736zM16,20.871c-2.69,0-4.872-2.182-4.872-4.871c0-2.69,2.182-4.872,4.872-4.872c2.689,0,4.871,2.182,4.871,4.872C20.871,18.689,18.689,20.871,16,20.871z"></path><title>Link options.</title></g></g></g></g><g   id="j_26" ><path  stroke="#707070" d="M 1320 1560 L 1380 1652 C 1383.3333333333333 1657.333333333333 1388 1661.333333333333 1394 1664 L 1567 1736" id="v-314" stroke-width="2" fill="none" style="opacity: 1;"></path><path  fill="black" stroke="black" d="M 0 0 0 0" transform="matrix(0.5449883653021014,0.8384436067412901,-0.8384436067412901,0.5449883653021014,1320,1560)"></path><path  fill="#707070" stroke="#707070" d="M 20 0 L 0 10 L 20 20 z" id="v-316" transform="matrix(-0.9235506188150754,-0.3834765370740318,0.3834765370740318,-0.9235506188150754,1563.1652671845975,1744.8055010510784)" style="opacity: 1;"></path><path  d="M 1320 1560 L 1380 1652 C 1383.3333333333333 1657.333333333333 1388 1661.333333333333 1394 1664 L 1567 1736" id="v-315" fill="none" style="cursor: default;"></path><g ><g id="v-308"  label-idx="0" cursor="move" transform="matrix(1,0,0,1,1421.1568603515625,1675.30224609375)" style="cursor: default; opacity: 1;"><rect joint-selector="rect" id="v-311" fill="#ffffff" rx="3" ry="3" pointer-events="none" width="195.69686889648438" height="32.88529586791992" transform="matrix(1,0,0,1,-97.8,-16.4)"></rect><text joint-selector="text" id="v-310" font-size="24px" xml:space="preserve" y="0.8em" fill="#707070" text-anchor="middle" pointer-events="none" font-weight="normal" transform="matrix(1,0,0,1,0,-9.8)"><tspan dy="0" >Delete old wishes</tspan></text></g><g id="v-309"  label-idx="1" cursor="move" transform="matrix(1,0,0,1,1411.1568603515625,1702.30224609375)" style="cursor: default; opacity: 1;"><rect joint-selector="rect" id="v-313" fill="#ffffff" rx="3" ry="3"  width="0" height="0" transform="matrix(1,0,0,1,0,0)" display="none"></rect><text joint-selector="text" id="v-312" fill="#000000" font-size="14" text-anchor="middle" pointer-events="none"></text></g></g><g  display="none"><g  transform="translate(1385, 1660)" id="v-305"><circle  idx="0" r="10"></circle><path  idx="0" d="M16,5.333c-7.732,0-14,4.701-14,10.5c0,1.982,0.741,3.833,2.016,5.414L2,25.667l5.613-1.441c2.339,1.317,5.237,2.107,8.387,2.107c7.732,0,14-4.701,14-10.5C30,10.034,23.732,5.333,16,5.333z" transform="translate(5, -33)"></path><path  idx="0" transform="scale(.8) translate(9.5, -37)" d="M24.778,21.419 19.276,15.917 24.777,10.415 21.949,7.585 16.447,13.087 10.945,7.585 8.117,10.415 13.618,15.917 8.116,21.419 10.946,24.248 16.447,18.746 21.948,24.248z"><title>Remove vertex.</title></path></g></g><g  id="v-318" display="none"><g  id="v-306"><path  end="source" d="M 26 0 L 0 13 L 26 26 z"></path></g><g  id="v-307"><path  end="target" d="M 26 0 L 0 13 L 26 26 z"></path></g></g><g  id="v-317" display="none"><g  id="v-304" transform="translate(1341.850711221877, 1593.5044238735445) "><g  event="remove"><circle r="11"></circle><path transform="scale(.8) translate(-16, -16)" d="M24.778,21.419 19.276,15.917 24.777,10.415 21.949,7.585 16.447,13.087 10.945,7.585 8.117,10.415 13.618,15.917 8.116,21.419 10.946,24.248 16.447,18.746 21.948,24.248z"></path><title>Remove link.</title></g><g  event="link:options"><circle r="11" transform="translate(25)"></circle><path fill="white" transform="scale(.55) translate(29, -16)" d="M31.229,17.736c0.064-0.571,0.104-1.148,0.104-1.736s-0.04-1.166-0.104-1.737l-4.377-1.557c-0.218-0.716-0.504-1.401-0.851-2.05l1.993-4.192c-0.725-0.91-1.549-1.734-2.458-2.459l-4.193,1.994c-0.647-0.347-1.334-0.632-2.049-0.849l-1.558-4.378C17.165,0.708,16.588,0.667,16,0.667s-1.166,0.041-1.737,0.105L12.707,5.15c-0.716,0.217-1.401,0.502-2.05,0.849L6.464,4.005C5.554,4.73,4.73,5.554,4.005,6.464l1.994,4.192c-0.347,0.648-0.632,1.334-0.849,2.05l-4.378,1.557C0.708,14.834,0.667,15.412,0.667,16s0.041,1.165,0.105,1.736l4.378,1.558c0.217,0.715,0.502,1.401,0.849,2.049l-1.994,4.193c0.725,0.909,1.549,1.733,2.459,2.458l4.192-1.993c0.648,0.347,1.334,0.633,2.05,0.851l1.557,4.377c0.571,0.064,1.148,0.104,1.737,0.104c0.588,0,1.165-0.04,1.736-0.104l1.558-4.377c0.715-0.218,1.399-0.504,2.049-0.851l4.193,1.993c0.909-0.725,1.733-1.549,2.458-2.458l-1.993-4.193c0.347-0.647,0.633-1.334,0.851-2.049L31.229,17.736zM16,20.871c-2.69,0-4.872-2.182-4.872-4.871c0-2.69,2.182-4.872,4.872-4.872c2.689,0,4.871,2.182,4.871,4.872C20.871,18.689,18.689,20.871,16,20.871z"></path><title>Link options.</title></g></g></g></g><g   id="j_27" ><path  stroke="#707070" d="M 1716 870 L 1716 1029" id="v-328" stroke-width="2" fill="none" style="opacity: 1;"></path><path  fill="black" stroke="black" d="M 0 0 0 0" transform="matrix(0.0037735571507889003,0.9999928801078685,-0.9999928801078685,0.0037735571507889003,1715.56005859375,870)"></path><path  fill="#707070" stroke="#707070" d="M 20 0 L 0 10 L 20 20 z" id="v-330" transform="matrix(-0.0037736903078957234,-0.9999928796053801,0.9999928796053801,-0.0037736903078957234,1706.16012256015,1029.0377267342885)" style="opacity: 1;"></path><path  d="M 1716 870 L 1716 1029" id="v-329" fill="none" style="cursor: default;"></path><g ><g id="v-322"  label-idx="0" cursor="move" transform="matrix(1,0,0,1,1716,949.5)" style="cursor: default; opacity: 1;"><rect joint-selector="rect" id="v-325" fill="#ffffff" rx="3" ry="3" pointer-events="none" width="73.3312759399414" height="32.88529586791992" transform="matrix(1,0,0,1,-36.7,-16.4)"></rect><text joint-selector="text" id="v-324" font-size="24px" xml:space="preserve" y="0.8em" fill="#707070" text-anchor="middle" pointer-events="none" font-weight="normal" transform="matrix(1,0,0,1,0,-9.8)"><tspan dy="0" >Serves</tspan></text></g><g id="v-323"  label-idx="1" cursor="move" transform="matrix(1,0,0,1,1706,976.5)" style="cursor: default; opacity: 1;"><rect joint-selector="rect" id="v-327" fill="#ffffff" rx="3" ry="3"  width="0" height="0" transform="matrix(1,0,0,1,0,0)" display="none"></rect><text joint-selector="text" id="v-326" fill="#000000" font-size="14" text-anchor="middle" pointer-events="none"></text></g></g><g  display="none"></g><g  id="v-332" display="none"><g  id="v-320"><path  end="source" d="M 26 0 L 0 13 L 26 26 z"></path></g><g  id="v-321"><path  end="target" d="M 26 0 L 0 13 L 26 26 z"></path></g></g><g  id="v-331" display="none"><g  id="v-319" transform="translate(1716, 910) "><g  event="remove"><circle r="11"></circle><path transform="scale(.8) translate(-16, -16)" d="M24.778,21.419 19.276,15.917 24.777,10.415 21.949,7.585 16.447,13.087 10.945,7.585 8.117,10.415 13.618,15.917 8.116,21.419 10.946,24.248 16.447,18.746 21.948,24.248z"></path><title>Remove link.</title></g><g  event="link:options"><circle r="11" transform="translate(25)"></circle><path fill="white" transform="scale(.55) translate(29, -16)" d="M31.229,17.736c0.064-0.571,0.104-1.148,0.104-1.736s-0.04-1.166-0.104-1.737l-4.377-1.557c-0.218-0.716-0.504-1.401-0.851-2.05l1.993-4.192c-0.725-0.91-1.549-1.734-2.458-2.459l-4.193,1.994c-0.647-0.347-1.334-0.632-2.049-0.849l-1.558-4.378C17.165,0.708,16.588,0.667,16,0.667s-1.166,0.041-1.737,0.105L12.707,5.15c-0.716,0.217-1.401,0.502-2.05,0.849L6.464,4.005C5.554,4.73,4.73,5.554,4.005,6.464l1.994,4.192c-0.347,0.648-0.632,1.334-0.849,2.05l-4.378,1.557C0.708,14.834,0.667,15.412,0.667,16s0.041,1.165,0.105,1.736l4.378,1.558c0.217,0.715,0.502,1.401,0.849,2.049l-1.994,4.193c0.725,0.909,1.549,1.733,2.459,2.458l4.192-1.993c0.648,0.347,1.334,0.633,2.05,0.851l1.557,4.377c0.571,0.064,1.148,0.104,1.737,0.104c0.588,0,1.165-0.04,1.736-0.104l1.558-4.377c0.715-0.218,1.399-0.504,2.049-0.851l4.193,1.993c0.909-0.725,1.733-1.549,2.458-2.458l-1.993-4.193c0.347-0.647,0.633-1.334,0.851-2.049L31.229,17.736zM16,20.871c-2.69,0-4.872-2.182-4.872-4.871c0-2.69,2.182-4.872,4.872-4.872c2.689,0,4.871,2.182,4.871,4.872C20.871,18.689,18.689,20.871,16,20.871z"></path><title>Link options.</title></g></g></g></g><g   id="j_28" ><path  stroke="#707070" d="M 2360 1171 L 1867 1235" id="v-345" stroke-width="2" fill="none" style="opacity: 1;"></path><path  fill="black" stroke="black" d="M 0 0 0 0" transform="matrix(-0.9917453738881267,0.12822290501895459,-0.12822290501895459,-0.9917453738881267,2360,1170.8599853515625)"></path><path  fill="#707070" stroke="#707070" d="M 20 0 L 0 10 L 20 20 z" id="v-347" transform="matrix(0.9917453738881267,-0.12822290501895428,0.12822290501895428,0.9917453738881267,1865.7177976796797,1224.6825243347457)" style="opacity: 1;"></path><path  d="M 2360 1171 L 1867 1235" id="v-346" fill="none" style="cursor: default;"></path><g ><g id="v-339"  label-idx="0" cursor="move" transform="matrix(1,0,0,1,2113.5,1203)" style="cursor: default; opacity: 1;"><rect joint-selector="rect" id="v-342" fill="#ffffff" rx="3" ry="3" pointer-events="none" width="147.83702087402344" height="32.88529586791992" transform="matrix(1,0,0,1,-73.9,-16.4)"></rect><text joint-selector="text" id="v-341" font-size="24px" xml:space="preserve" y="0.8em" fill="#707070" text-anchor="middle" pointer-events="none" font-weight="normal" transform="matrix(1,0,0,1,0,-9.8)"><tspan dy="0" >Notes wishes</tspan></text></g><g id="v-340"  label-idx="1" cursor="move" transform="matrix(1,0,0,1,2103.5,1230)" style="cursor: default; opacity: 1;"><rect joint-selector="rect" id="v-344" fill="#ffffff" rx="3" ry="3"  width="0" height="0" transform="matrix(1,0,0,1,0,0)" display="none"></rect><text joint-selector="text" id="v-343" fill="#000000" font-size="14" text-anchor="middle" pointer-events="none"></text></g></g><g  display="none"></g><g  id="v-349" display="none"><g  id="v-337"><path  end="source" d="M 26 0 L 0 13 L 26 26 z"></path></g><g  id="v-338"><path  end="target" d="M 26 0 L 0 13 L 26 26 z"></path></g></g><g  id="v-348" display="none"><g  id="v-336" transform="translate(2320.33285019981, 1176.1494880065156) "><g  event="remove"><circle r="11"></circle><path transform="scale(.8) translate(-16, -16)" d="M24.778,21.419 19.276,15.917 24.777,10.415 21.949,7.585 16.447,13.087 10.945,7.585 8.117,10.415 13.618,15.917 8.116,21.419 10.946,24.248 16.447,18.746 21.948,24.248z"></path><title>Remove link.</title></g><g  event="link:options"><circle r="11" transform="translate(25)"></circle><path fill="white" transform="scale(.55) translate(29, -16)" d="M31.229,17.736c0.064-0.571,0.104-1.148,0.104-1.736s-0.04-1.166-0.104-1.737l-4.377-1.557c-0.218-0.716-0.504-1.401-0.851-2.05l1.993-4.192c-0.725-0.91-1.549-1.734-2.458-2.459l-4.193,1.994c-0.647-0.347-1.334-0.632-2.049-0.849l-1.558-4.378C17.165,0.708,16.588,0.667,16,0.667s-1.166,0.041-1.737,0.105L12.707,5.15c-0.716,0.217-1.401,0.502-2.05,0.849L6.464,4.005C5.554,4.73,4.73,5.554,4.005,6.464l1.994,4.192c-0.347,0.648-0.632,1.334-0.849,2.05l-4.378,1.557C0.708,14.834,0.667,15.412,0.667,16s0.041,1.165,0.105,1.736l4.378,1.558c0.217,0.715,0.502,1.401,0.849,2.049l-1.994,4.193c0.725,0.909,1.549,1.733,2.459,2.458l4.192-1.993c0.648,0.347,1.334,0.633,2.05,0.851l1.557,4.377c0.571,0.064,1.148,0.104,1.737,0.104c0.588,0,1.165-0.04,1.736-0.104l1.558-4.377c0.715-0.218,1.399-0.504,2.049-0.851l4.193,1.993c0.909-0.725,1.733-1.549,2.458-2.458l-1.993-4.193c0.347-0.647,0.633-1.334,0.851-2.049L31.229,17.736zM16,20.871c-2.69,0-4.872-2.182-4.872-4.871c0-2.69,2.182-4.872,4.872-4.872c2.689,0,4.871,2.182,4.871,4.872C20.871,18.689,18.689,20.871,16,20.871z"></path><title>Link options.</title></g></g></g></g><g   id="j_29" ><path  stroke="#707070" d="M 2276 679 L 1867 1100" id="v-362" stroke-width="2" fill="none" style="opacity: 1;"></path><path  fill="black" stroke="black" d="M 0 0 0 0" transform="matrix(-0.6973317232230476,0.7167485387405927,-0.7167485387405927,-0.6973317232230476,2276.419921875,679)"></path><path  fill="#707070" stroke="#707070" d="M 20 0 L 0 10 L 20 20 z" id="v-364" transform="matrix(0.6973317232230472,-0.7167485387405932,0.7167485387405932,0.6973317232230472,1859.8324639819264,1092.8466339754877)" style="opacity: 1;"></path><path  d="M 2276 679 L 1867 1100" id="v-363" fill="none" style="cursor: default;"></path><g ><g id="v-356"  label-idx="0" cursor="move" transform="matrix(1,0,0,1,2071.5,889.5)" style="cursor: default; opacity: 1;"><rect joint-selector="rect" id="v-359" fill="#ffffff" rx="3" ry="3" pointer-events="none" width="152.7184295654297" height="32.88529586791992" transform="matrix(1,0,0,1,-76.4,-16.4)"></rect><text joint-selector="text" id="v-358" font-size="24px" xml:space="preserve" y="0.8em" fill="#707070" text-anchor="middle" pointer-events="none" font-weight="normal" transform="matrix(1,0,0,1,0,-9.8)"><tspan dy="0" >Fulfills wishes</tspan></text></g><g id="v-357"  label-idx="1" cursor="move" transform="matrix(1,0,0,1,2061.5,916.5)" style="cursor: default; opacity: 1;"><rect joint-selector="rect" id="v-361" fill="#ffffff" rx="3" ry="3"  width="0" height="0" transform="matrix(1,0,0,1,0,0)" display="none"></rect><text joint-selector="text" id="v-360" fill="#000000" font-size="14" text-anchor="middle" pointer-events="none"></text></g></g><g  display="none"></g><g  id="v-366" display="none"><g  id="v-354"><path  end="source" d="M 26 0 L 0 13 L 26 26 z"></path></g><g  id="v-355"><path  end="target" d="M 26 0 L 0 13 L 26 26 z"></path></g></g><g  id="v-365" display="none"><g  id="v-353" transform="translate(2248.127570894592, 707.6902020864961) "><g  event="remove"><circle r="11"></circle><path transform="scale(.8) translate(-16, -16)" d="M24.778,21.419 19.276,15.917 24.777,10.415 21.949,7.585 16.447,13.087 10.945,7.585 8.117,10.415 13.618,15.917 8.116,21.419 10.946,24.248 16.447,18.746 21.948,24.248z"></path><title>Remove link.</title></g><g  event="link:options"><circle r="11" transform="translate(25)"></circle><path fill="white" transform="scale(.55) translate(29, -16)" d="M31.229,17.736c0.064-0.571,0.104-1.148,0.104-1.736s-0.04-1.166-0.104-1.737l-4.377-1.557c-0.218-0.716-0.504-1.401-0.851-2.05l1.993-4.192c-0.725-0.91-1.549-1.734-2.458-2.459l-4.193,1.994c-0.647-0.347-1.334-0.632-2.049-0.849l-1.558-4.378C17.165,0.708,16.588,0.667,16,0.667s-1.166,0.041-1.737,0.105L12.707,5.15c-0.716,0.217-1.401,0.502-2.05,0.849L6.464,4.005C5.554,4.73,4.73,5.554,4.005,6.464l1.994,4.192c-0.347,0.648-0.632,1.334-0.849,2.05l-4.378,1.557C0.708,14.834,0.667,15.412,0.667,16s0.041,1.165,0.105,1.736l4.378,1.558c0.217,0.715,0.502,1.401,0.849,2.049l-1.994,4.193c0.725,0.909,1.549,1.733,2.459,2.458l4.192-1.993c0.648,0.347,1.334,0.633,2.05,0.851l1.557,4.377c0.571,0.064,1.148,0.104,1.737,0.104c0.588,0,1.165-0.04,1.736-0.104l1.558-4.377c0.715-0.218,1.399-0.504,2.049-0.851l4.193,1.993c0.909-0.725,1.733-1.549,2.458-2.458l-1.993-4.193c0.347-0.647,0.633-1.334,0.851-2.049L31.229,17.736zM16,20.871c-2.69,0-4.872-2.182-4.872-4.871c0-2.69,2.182-4.872,4.872-4.872c2.689,0,4.871,2.182,4.871,4.872C20.871,18.689,18.689,20.871,16,20.871z"></path><title>Link options.</title></g></g></g></g></g><g ></g><g ></g><g ></g></g></svg>